<svg width="12px" height="12px" viewBox="0 0 12 12" version="1.1" xmlns="http://www.w3.org/2000/svg" xmlns:xlink="http://www.w3.org/1999/xlink">
  <g id="Page-1" stroke="none" stroke-width="1" fill="none" fill-rule="evenodd">
    <g id="cross" fill="#FFFFFF" fill-rule="nonzero">
      <path d="M11.8903361,9.64039873 C11.8903361,9.64039873 11.8903361,9.64039873 11.8903361,9.64039873 L8.24993741,6 L11.8903361,2.35960127 C11.8903361,2.35960127 11.8903361,2.35960127 11.8903361,2.35960127 C11.92971,2.32022737 11.9578343,2.27447864 11.9762088,2.22572999 C12.0260824,2.09223371 11.9975832,1.93661304 11.8903361,1.82936602 L10.170634,0.109663861 C10.063387,0.00241684408 9.9073913,-0.0257073735 9.77427001,0.0237912495 C9.72552136,0.0417907488 9.67977263,0.0702899559 9.64039873,0.109288871 C9.64039873,0.109288871 9.64039873,0.109288871 9.64039873,0.109288871 L6,3.7496876 L2.35960127,0.109288871 C2.35960127,0.109288871 2.35960127,0.109288871 2.35960127,0.109288871 C2.32022737,0.0702899559 2.27447864,0.0417907488 2.22572999,0.0237912495 C2.09223371,-0.0260823631 1.93661304,0.00241684408 1.82936602,0.109663861 L0.109663861,1.82936602 C0.00241684408,1.93661304 -0.0257073735,2.0926087 0.0237912495,2.22572999 C0.0421657383,2.27447864 0.0702899559,2.32022737 0.109663861,2.35960127 C0.109663861,2.35960127 0.109663861,2.35960127 0.109663861,2.35960127 L3.75006259,6 L0.109663861,9.64039873 C0.109663861,9.64039873 0.109663861,9.64039873 0.109663861,9.64039873 C0.0706649455,9.67977263 0.0421657383,9.72552136 0.0237912495,9.77427001 C-0.0260823631,9.9073913 0.00241684408,10.063387 0.109663861,10.170634 L1.82936602,11.8903361 C1.93661304,11.9975832 2.0926087,12.0257074 2.22572999,11.9762088 C2.27447864,11.9578343 2.32022737,11.92971 2.35960127,11.8903361 C2.35960127,11.8903361 2.35960127,11.8903361 2.35960127,11.8903361 L6,8.24993741 L9.64039873,11.8903361 C9.64039873,11.8903361 9.64039873,11.8903361 9.64039873,11.8903361 C9.67977263,11.92971 9.72552136,11.9578343 9.77427001,11.9762088 C9.90776629,12.0260824 10.063387,11.9975832 10.170634,11.8903361 L11.8903361,10.170634 C11.9975832,10.063387 12.0260824,9.9073913 11.9762088,9.77427001 C11.9578343,9.72552136 11.92971,9.67977263 11.8903361,9.64039873 Z" id="Path"></path>
    </g>
  </g>
</svg>